<svg version="1.1" id="Layer_1" xmlns="http://www.w3.org/2000/svg" xmlns:xlink="http://www.w3.org/1999/xlink" x="0px" y="0px"
	 width="100%" viewBox="0 0 500 500" enable-background="new 0 0 500 500" xml:space="preserve">
<path fill="#FDFCF8" opacity="1.000000" stroke="none" 
	d="
M278.000000,501.000000 
	C185.333359,501.000000 93.166710,501.000000 1.000049,501.000000 
	C1.000033,334.333405 1.000033,167.666794 1.000016,1.000139 
	C167.666565,1.000093 334.333130,1.000093 500.999756,1.000046 
	C500.999847,167.666519 500.999847,334.333038 500.999939,500.999786 
	C426.833344,501.000000 352.666656,501.000000 278.000000,501.000000 
M290.499939,386.839264 
	C322.319641,386.839264 354.143555,387.125580 385.956451,386.659729 
	C395.156708,386.525024 404.718170,385.476562 413.445099,382.725189 
	C472.909210,363.977905 479.718109,305.061798 454.124756,268.082001 
	C443.631531,252.920303 428.410004,243.642197 411.666534,236.973053 
	C396.414001,230.897751 380.700867,225.977188 365.460358,219.874329 
	C359.744965,217.585663 354.194458,214.052475 349.642822,209.907318 
	C344.318176,205.058121 345.571075,198.953613 352.071014,195.806824 
	C357.713593,193.075119 363.775360,191.191681 369.695557,189.054398 
	C386.371826,183.034027 403.430237,177.902802 419.653015,170.846268 
	C434.058502,164.580200 445.354980,154.225494 449.357544,137.967560 
	C453.343689,121.776665 447.985291,107.875153 434.105133,101.838257 
	C426.954498,98.728249 418.793121,96.478142 411.063019,96.401459 
	C359.758514,95.892487 308.447144,96.076782 257.138000,96.054382 
	C256.860382,96.054260 256.582611,96.322357 256.300018,96.467720 
	C256.300018,193.167633 256.300018,289.854614 256.300018,386.839264 
	C267.566711,386.839264 278.533295,386.839264 290.499939,386.839264 
M182.199448,210.499908 
	C182.199448,246.154526 182.209763,281.809143 182.193207,317.463745 
	C182.188187,328.292572 182.416748,339.133606 181.987335,349.947144 
	C181.424957,364.109406 171.419296,375.577637 157.572083,377.377289 
	C152.279953,378.065125 146.697937,376.522491 141.331528,376.004395 
	C143.519318,381.393219 147.997635,384.824432 153.528687,386.582825 
	C158.242615,388.081482 163.200668,389.246063 168.119080,389.595093 
	C194.199448,391.445831 213.535477,381.709320 220.417511,356.753204 
	C223.031677,347.273560 223.864014,337.045532 223.899948,327.152771 
	C224.174042,251.679153 224.050385,176.204102 224.050491,100.729492 
	C224.050491,99.278297 224.050491,97.827095 224.050491,96.309669 
	C209.916138,96.309669 196.203476,96.309669 182.199448,96.309669 
	C182.199448,134.247665 182.199448,171.873764 182.199448,210.499908 
M85.467499,387.080719 
	C97.449013,383.658142 105.630951,375.866211 110.860977,364.791534 
	C116.635101,352.564789 117.369980,339.457672 117.369064,326.236176 
	C117.363853,251.240891 117.366699,176.245621 117.366791,101.250336 
	C117.366791,99.632614 117.366798,98.014893 117.366798,96.335419 
	C103.246323,96.335419 89.526505,96.335419 75.699234,96.335419 
	C75.699234,98.668533 75.699234,100.666809 75.699234,102.665085 
	C75.699234,182.660049 75.706856,262.654999 75.672348,342.649963 
	C75.670914,345.971191 75.473541,349.318939 75.030411,352.608948 
	C72.712067,369.821564 57.216572,380.643707 40.334473,376.918213 
	C38.577820,376.530579 36.851482,376.005554 34.386551,375.352295 
	C37.447392,381.938812 42.109005,385.205292 47.840069,386.973480 
	C60.063366,390.744781 72.372070,391.102844 85.467499,387.080719 
z"/>
<path fill="#020202" opacity="1.000000" stroke="none" 
	d="
M289.999908,386.839264 
	C278.533295,386.839264 267.566711,386.839264 256.300018,386.839264 
	C256.300018,289.854614 256.300018,193.167633 256.300018,96.467720 
	C256.582611,96.322357 256.860382,96.054260 257.138000,96.054382 
	C308.447144,96.076782 359.758514,95.892487 411.063019,96.401459 
	C418.793121,96.478142 426.954498,98.728249 434.105133,101.838257 
	C447.985291,107.875153 453.343689,121.776665 449.357544,137.967560 
	C445.354980,154.225494 434.058502,164.580200 419.653015,170.846268 
	C403.430237,177.902802 386.371826,183.034027 369.695557,189.054398 
	C363.775360,191.191681 357.713593,193.075119 352.071014,195.806824 
	C345.571075,198.953613 344.318176,205.058121 349.642822,209.907318 
	C354.194458,214.052475 359.744965,217.585663 365.460358,219.874329 
	C380.700867,225.977188 396.414001,230.897751 411.666534,236.973053 
	C428.410004,243.642197 443.631531,252.920303 454.124756,268.082001 
	C479.718109,305.061798 472.909210,363.977905 413.445099,382.725189 
	C404.718170,385.476562 395.156708,386.525024 385.956451,386.659729 
	C354.143555,387.125580 322.319641,386.839264 289.999908,386.839264 
M317.062012,217.878998 
	C318.910675,211.851318 322.880981,207.323975 328.038727,204.126556 
	C334.084473,200.378632 340.472809,197.155777 346.841522,193.962479 
	C358.404633,188.164734 370.416016,183.168030 381.590668,176.712463 
	C394.922668,169.010605 403.978394,157.657013 406.665436,141.865051 
	C409.702484,124.016319 402.889832,111.001541 386.779572,105.292732 
	C382.424103,103.749329 377.790833,102.245628 373.243896,102.110748 
	C348.640656,101.380959 324.024506,101.085175 299.412415,100.662354 
	C299.137451,100.657631 298.857300,100.953529 298.456726,101.177933 
	C298.456726,182.648514 298.456726,264.177185 298.456726,345.717163 
	C299.216156,345.838684 299.695404,345.982452 300.174652,345.982544 
	C337.323608,345.988647 374.474640,346.205109 411.620453,345.861267 
	C424.961609,345.737793 438.249512,343.893402 449.964081,336.622131 
	C466.247345,326.515045 468.783813,304.140076 454.343842,291.910309 
	C448.185944,286.694946 440.431763,282.355652 432.685699,280.220856 
	C412.692749,274.710815 392.291687,270.687439 372.069946,265.999939 
	C357.487671,262.619720 342.892426,259.165161 330.444946,250.211655 
	C319.660522,242.454376 314.751678,232.055588 317.062012,217.878998 
z"/>
<path fill="#020202" opacity="1.000000" stroke="none" 
	d="
M182.199448,209.999893 
	C182.199448,171.873764 182.199448,134.247665 182.199448,96.309669 
	C196.203476,96.309669 209.916138,96.309669 224.050491,96.309669 
	C224.050491,97.827095 224.050491,99.278297 224.050491,100.729492 
	C224.050385,176.204102 224.174042,251.679153 223.899948,327.152771 
	C223.864014,337.045532 223.031677,347.273560 220.417511,356.753204 
	C213.535477,381.709320 194.199448,391.445831 168.119080,389.595093 
	C163.200668,389.246063 158.242615,388.081482 153.528687,386.582825 
	C147.997635,384.824432 143.519318,381.393219 141.331528,376.004395 
	C146.697937,376.522491 152.279953,378.065125 157.572083,377.377289 
	C171.419296,375.577637 181.424957,364.109406 181.987335,349.947144 
	C182.416748,339.133606 182.188187,328.292572 182.193207,317.463745 
	C182.209763,281.809143 182.199448,246.154526 182.199448,209.999893 
z"/>
<path fill="#000000" opacity="1.000000" stroke="none" 
	d="
M85.079849,387.198517 
	C72.372070,391.102844 60.063366,390.744781 47.840069,386.973480 
	C42.109005,385.205292 37.447392,381.938812 34.386551,375.352295 
	C36.851482,376.005554 38.577820,376.530579 40.334473,376.918213 
	C57.216572,380.643707 72.712067,369.821564 75.030411,352.608948 
	C75.473541,349.318939 75.670914,345.971191 75.672348,342.649963 
	C75.706856,262.654999 75.699234,182.660049 75.699234,102.665085 
	C75.699234,100.666809 75.699234,98.668533 75.699234,96.335419 
	C89.526505,96.335419 103.246323,96.335419 117.366798,96.335419 
	C117.366798,98.014893 117.366791,99.632614 117.366791,101.250336 
	C117.366699,176.245621 117.363853,251.240891 117.369064,326.236176 
	C117.369980,339.457672 116.635101,352.564789 110.860977,364.791534 
	C105.630951,375.866211 97.449013,383.658142 85.079849,387.198517 
z"/>
<path fill="#FCFBF7" opacity="1.000000" stroke="none" 
	d="
M317.003174,218.279297 
	C314.751678,232.055588 319.660522,242.454376 330.444946,250.211655 
	C342.892426,259.165161 357.487671,262.619720 372.069946,265.999939 
	C392.291687,270.687439 412.692749,274.710815 432.685699,280.220856 
	C440.431763,282.355652 448.185944,286.694946 454.343842,291.910309 
	C468.783813,304.140076 466.247345,326.515045 449.964081,336.622131 
	C438.249512,343.893402 424.961609,345.737793 411.620453,345.861267 
	C374.474640,346.205109 337.323608,345.988647 300.174652,345.982544 
	C299.695404,345.982452 299.216156,345.838684 298.456726,345.717163 
	C298.456726,264.177185 298.456726,182.648514 298.456726,101.177933 
	C298.857300,100.953529 299.137451,100.657631 299.412415,100.662354 
	C324.024506,101.085175 348.640656,101.380959 373.243896,102.110748 
	C377.790833,102.245628 382.424103,103.749329 386.779572,105.292732 
	C402.889832,111.001541 409.702484,124.016319 406.665436,141.865051 
	C403.978394,157.657013 394.922668,169.010605 381.590668,176.712463 
	C370.416016,183.168030 358.404633,188.164734 346.841522,193.962479 
	C340.472809,197.155777 334.084473,200.378632 328.038727,204.126556 
	C322.880981,207.323975 318.910675,211.851318 317.003174,218.279297 
z"/>
</svg>